<svg width="24" height="24" viewBox="0 0 24 24" fill="none" xmlns="http://www.w3.org/2000/svg">
<path d="M12.09 3C4.5 3 0 12 0 12C0 12 4.5 21 12.09 21C19.5 21 24 12 24 12C24 12 19.5 3 12.09 3ZM12 6C13.5913 6 15.1174 6.63214 16.2426 7.75736C17.3679 8.88258 18 10.4087 18 12C18 15.33 15.33 18 12 18C10.4087 18 8.88258 17.3679 7.75736 16.2426C6.63214 15.1174 6 13.5913 6 12C6 10.4087 6.63214 8.88258 7.75736 7.75736C8.88258 6.63214 10.4087 6 12 6ZM12 9C10.35 9 9 10.35 9 12C9 13.65 10.35 15 12 15C13.65 15 15 13.65 15 12C15 11.7 14.88 11.43 14.82 11.16C14.7176 11.3744 14.5653 11.5611 14.3758 11.7044C14.1863 11.8477 13.9652 11.9435 13.7311 11.9836C13.4969 12.0238 13.2566 12.0072 13.0302 11.9353C12.8038 11.8633 12.5979 11.7381 12.4299 11.5701C12.2619 11.4021 12.1367 11.1962 12.0647 10.9698C11.9928 10.7434 11.9762 10.5031 12.0164 10.2689C12.0565 10.0348 12.1523 9.81366 12.2956 9.62418C12.4389 9.43471 12.6256 9.28238 12.84 9.18C12.5718 9.07428 12.288 9.01346 12 9Z" fill="#3CCB7F"/>
</svg>
