<svg width="24" height="14" viewBox="0 0 24 14" fill="none" xmlns="http://www.w3.org/2000/svg">
<path d="M22.6633 6.90603C21.8613 6.90603 21.3266 7.4232 21.3266 8.19896V9.10402L14.2421 2.76864C13.7074 2.38076 13.039 2.25146 12.5044 2.63934L8.09325 5.87168L2.21176 0.829233C1.67708 0.312059 0.875058 0.441352 0.340377 0.958526C-0.194303 1.4757 -0.060633 2.25146 0.474048 2.76864L7.15756 8.58684C7.69224 8.97472 8.36059 8.97473 8.89527 8.71614L13.3064 5.4838L19.3215 10.9141H18.6532C17.8512 10.9141 17.3165 11.4313 17.3165 12.2071C17.3165 12.9828 17.8512 13.5 18.6532 13.5H22.6633C23.4653 13.5 24 12.9828 24 12.2071V8.32826C24 7.4232 23.4653 6.90603 22.6633 6.90603Z" fill="#E94971"/>
</svg>
