<svg width="24" height="18" viewBox="0 0 24 18" fill="none" xmlns="http://www.w3.org/2000/svg">
<path d="M17.4545 10.0625H15.2727C13.7241 10.0605 12.2261 10.5996 11.0509 11.5819C9.94691 10.61 8.51357 10.069 7.02545 10.0625H6.06545C4.45768 10.0653 2.91658 10.6886 1.77972 11.7959C0.642847 12.9031 0.0028839 14.4041 0 15.97V16.4375C0 16.7193 0.114935 16.9895 0.31952 17.1888C0.524105 17.3881 0.801582 17.5 1.09091 17.5H22.9091C23.1984 17.5 23.4759 17.3881 23.6805 17.1888C23.8851 16.9895 24 16.7193 24 16.4375C24 14.7467 23.3104 13.1252 22.0829 11.9297C20.8554 10.7342 19.1905 10.0625 17.4545 10.0625ZM6.06545 12.1875H7.02545C7.99856 12.1857 8.93542 12.5469 9.64364 13.1969C9.24224 13.8506 8.96854 14.5711 8.83636 15.3219V15.375H2.18182C2.33266 14.48 2.80691 13.6669 3.51902 13.0825C4.23113 12.498 5.13424 12.1806 6.06545 12.1875ZM11.0727 15.375C11.0894 15.2888 11.1112 15.2037 11.1382 15.12C11.1382 15.12 11.1382 15.035 11.1382 14.9925C11.3037 14.5564 11.5434 14.1505 11.8473 13.7919C12.257 13.2901 12.778 12.8852 13.3712 12.6073C13.9644 12.3295 14.6145 12.186 15.2727 12.1875H17.4545C18.4214 12.1882 19.3606 12.5016 20.1247 13.0786C20.8889 13.6555 21.4347 14.4632 21.6764 15.375H11.0727ZM16.3636 9C17.2267 9 18.0703 8.75074 18.7879 8.28375C19.5055 7.81675 20.0648 7.15299 20.3951 6.37641C20.7254 5.59982 20.8118 4.74529 20.6434 3.92087C20.4751 3.09645 20.0595 2.33917 19.4492 1.7448C18.8389 1.15042 18.0614 0.745652 17.2149 0.581664C16.3685 0.417677 15.4911 0.501841 14.6937 0.823514C13.8964 1.14519 13.2149 1.68992 12.7354 2.38883C12.2559 3.08774 12 3.90943 12 4.75C12 5.87717 12.4597 6.95818 13.2781 7.75521C14.0964 8.55223 15.2063 9 16.3636 9ZM16.3636 2.625C16.7952 2.625 17.217 2.74963 17.5758 2.98313C17.9346 3.21663 18.2142 3.54851 18.3794 3.9368C18.5445 4.32509 18.5877 4.75236 18.5035 5.16457C18.4193 5.57678 18.2115 5.95542 17.9064 6.2526C17.6013 6.54979 17.2125 6.75218 16.7893 6.83417C16.3661 6.91616 15.9274 6.87408 15.5287 6.71325C15.13 6.55241 14.7893 6.28004 14.5495 5.93059C14.3098 5.58113 14.1818 5.17029 14.1818 4.75C14.1818 4.18642 14.4117 3.64591 14.8209 3.2474C15.23 2.84888 15.785 2.625 16.3636 2.625ZM6.54545 9C7.4085 9 8.25216 8.75074 8.96976 8.28375C9.68736 7.81675 10.2467 7.15299 10.5769 6.37641C10.9072 5.59982 10.9936 4.74529 10.8252 3.92087C10.6569 3.09645 10.2413 2.33917 9.63101 1.7448C9.02075 1.15042 8.24322 0.745652 7.39676 0.581664C6.5503 0.417677 5.67291 0.501841 4.87556 0.823514C4.07821 1.14519 3.39671 1.68992 2.91722 2.38883C2.43774 3.08774 2.18182 3.90943 2.18182 4.75C2.18182 5.87717 2.64156 6.95818 3.4599 7.75521C4.27824 8.55223 5.38815 9 6.54545 9ZM6.54545 2.625C6.97698 2.625 7.39881 2.74963 7.75761 2.98313C8.11641 3.21663 8.39606 3.54851 8.56119 3.9368C8.72633 4.32509 8.76954 4.75236 8.68535 5.16457C8.60116 5.57678 8.39337 5.95542 8.08823 6.2526C7.7831 6.54979 7.39434 6.75218 6.97111 6.83417C6.54787 6.91616 6.10918 6.87408 5.71051 6.71325C5.31183 6.55241 4.97108 6.28004 4.73134 5.93059C4.4916 5.58113 4.36364 5.17029 4.36364 4.75C4.36364 4.18642 4.59351 3.64591 5.00268 3.2474C5.41185 2.84888 5.9668 2.625 6.54545 2.625Z" fill="#414347"/>
</svg>
