<svg width="24" height="18" viewBox="0 0 24 18" fill="none" xmlns="http://www.w3.org/2000/svg">
<path d="M22.7886 3.18271C22.4242 3.01863 22.0196 2.96526 21.6251 3.02924C21.2306 3.09321 20.8636 3.2717 20.5697 3.54253L17.991 5.94133V4.2022C17.991 3.2479 17.6119 2.33269 16.9371 1.65789C16.2623 0.983099 15.3471 0.604004 14.3928 0.604004H3.5982C2.6439 0.604004 1.72868 0.983099 1.05389 1.65789C0.379095 2.33269 0 3.2479 0 4.2022V13.7974C0 14.7517 0.379095 15.6669 1.05389 16.3417C1.72868 17.0165 2.6439 17.3956 3.5982 17.3956H14.3928C15.3471 17.3956 16.2623 17.0165 16.9371 16.3417C17.6119 15.6669 17.991 14.7517 17.991 13.7974V12.0583L20.5817 14.4571C20.9631 14.8023 21.4586 14.9945 21.973 14.9968C22.2585 14.9961 22.5406 14.9348 22.8006 14.8169C23.1544 14.6738 23.4574 14.4285 23.6711 14.1123C23.8847 13.7961 23.9992 13.4234 24 13.0418V4.95783C23.9983 4.57484 23.882 4.20114 23.6661 3.88479C23.4502 3.56845 23.1446 3.32394 22.7886 3.18271ZM15.5922 13.7974C15.5922 14.1155 15.4658 14.4206 15.2409 14.6455C15.016 14.8704 14.7109 14.9968 14.3928 14.9968H3.5982C3.2801 14.9968 2.97503 14.8704 2.7501 14.6455C2.52517 14.4206 2.3988 14.1155 2.3988 13.7974V4.2022C2.3988 3.8841 2.52517 3.57903 2.7501 3.3541C2.97503 3.12917 3.2801 3.0028 3.5982 3.0028H14.3928C14.7109 3.0028 15.016 3.12917 15.2409 3.3541C15.4658 3.57903 15.5922 3.8841 15.5922 4.2022V13.7974ZM21.5892 12.1182L18.2189 8.99981L21.5892 5.88136V12.1182Z" fill="#FD853A"/>
</svg>
